<svg xmlns="http://www.w3.org/2000/svg" width="1200" height="800" viewBox="0 0 1200 800" role="img" aria-label="বিজ্ঞান মেলা ২০২৬">
  <defs>
    <linearGradient id="bg" x1="0" y1="0" x2="1" y2="1">
      <stop offset="0" stop-color="rgb(103,70,5)" />
      <stop offset="0.55" stop-color="#f59e0b" />
      <stop offset="1" stop-color="rgb(255,192,29)" />
    </linearGradient>
    <linearGradient id="shade" x1="0" y1="0" x2="0" y2="1">
      <stop offset="0.45" stop-color="rgba(6,30,20,0)" />
      <stop offset="1" stop-color="rgba(6,30,20,0.62)" />
    </linearGradient>
  </defs>
  <rect width="1200" height="800" fill="url(#bg)" />
  <rect x="0" y="401" width="1200" height="17" fill="rgba(245,158,11,0.18)" transform="skewY(1.4)" /><rect x="0" y="363" width="1200" height="9" fill="rgba(245,158,11,0.18)" transform="skewY(-1.4)" /><rect x="0" y="273" width="1200" height="9" fill="rgba(245,158,11,0.18)" transform="skewY(1.4)" /><rect x="0" y="414" width="1200" height="31" fill="rgba(245,158,11,0.18)" transform="skewY(-1.4)" />
  <circle cx="266" cy="294" r="165" fill="rgba(255,255,255,0.05)" /><circle cx="610" cy="236" r="157" fill="rgba(255,255,255,0.07)" /><circle cx="492" cy="98" r="129" fill="rgba(255,255,255,0.09)" /><circle cx="542" cy="285" r="106" fill="rgba(255,255,255,0.11)" /><circle cx="496" cy="478" r="195" fill="rgba(255,255,255,0.13)" />
  <g opacity="0.5"><rect x="96" y="516" width="54" height="156" rx="3" fill="rgba(255,255,255,0.28)" /><rect x="204" y="591" width="54" height="81" rx="3" fill="rgba(255,255,255,0.28)" /><rect x="312" y="524" width="54" height="148" rx="3" fill="rgba(255,255,255,0.28)" /><rect x="420" y="486" width="54" height="186" rx="3" fill="rgba(255,255,255,0.28)" /><rect x="528" y="432" width="54" height="240" rx="3" fill="rgba(255,255,255,0.28)" /><rect x="636" y="575" width="54" height="97" rx="3" fill="rgba(255,255,255,0.28)" /><rect x="744" y="584" width="54" height="88" rx="3" fill="rgba(255,255,255,0.28)" /><rect x="852" y="561" width="54" height="111" rx="3" fill="rgba(255,255,255,0.28)" /><rect x="960" y="553" width="54" height="119" rx="3" fill="rgba(255,255,255,0.28)" /></g>
  <rect width="1200" height="800" fill="url(#shade)" />
  <g font-family="'Hind Siliguri','Noto Sans Bengali',system-ui,sans-serif">
    <text x="72" y="740" fill="rgba(255,255,255,0.96)" font-size="60" font-weight="600">বিজ্ঞান মেলা ২০২৬</text>
    <text x="72" y="672" fill="rgba(255,255,255,0.62)" font-size="30" letter-spacing="2">OKGS · ওমর কিন্ডারগার্টেন স্কুল</text>
  </g>
</svg>
