<svg xmlns="http://www.w3.org/2000/svg" width="1200" height="750" viewBox="0 0 1200 750" role="img" aria-label="নতুন শিক্ষাবর্ষ">
  <defs>
    <linearGradient id="bg" x1="0" y1="0" x2="1" y2="1">
      <stop offset="0" stop-color="rgb(9,44,25)" />
      <stop offset="0.55" stop-color="#166534" />
      <stop offset="1" stop-color="rgb(62,135,70)" />
    </linearGradient>
    <linearGradient id="shade" x1="0" y1="0" x2="0" y2="1">
      <stop offset="0.45" stop-color="rgba(6,30,20,0)" />
      <stop offset="1" stop-color="rgba(6,30,20,0.62)" />
    </linearGradient>
  </defs>
  <rect width="1200" height="750" fill="url(#bg)" />
  <rect x="0" y="346" width="1200" height="28" fill="rgba(22,101,52,0.18)" transform="skewY(1.4)" /><rect x="0" y="186" width="1200" height="16" fill="rgba(22,101,52,0.18)" transform="skewY(-1.4)" /><rect x="0" y="615" width="1200" height="8" fill="rgba(22,101,52,0.18)" transform="skewY(1.4)" /><rect x="0" y="360" width="1200" height="18" fill="rgba(22,101,52,0.18)" transform="skewY(-1.4)" />
  <circle cx="589" cy="182" r="150" fill="rgba(255,255,255,0.05)" /><circle cx="686" cy="406" r="86" fill="rgba(255,255,255,0.07)" /><circle cx="273" cy="432" r="109" fill="rgba(255,255,255,0.09)" /><circle cx="123" cy="500" r="98" fill="rgba(255,255,255,0.11)" /><circle cx="443" cy="98" r="169" fill="rgba(255,255,255,0.13)" />
  <g opacity="0.5"><rect x="96" y="517" width="54" height="113" rx="3" fill="rgba(255,255,255,0.28)" /><rect x="204" y="525" width="54" height="105" rx="3" fill="rgba(255,255,255,0.28)" /><rect x="312" y="557" width="54" height="73" rx="3" fill="rgba(255,255,255,0.28)" /><rect x="420" y="488" width="54" height="142" rx="3" fill="rgba(255,255,255,0.28)" /><rect x="528" y="447" width="54" height="183" rx="3" fill="rgba(255,255,255,0.28)" /><rect x="636" y="426" width="54" height="204" rx="3" fill="rgba(255,255,255,0.28)" /><rect x="744" y="446" width="54" height="184" rx="3" fill="rgba(255,255,255,0.28)" /><rect x="852" y="542" width="54" height="88" rx="3" fill="rgba(255,255,255,0.28)" /><rect x="960" y="466" width="54" height="164" rx="3" fill="rgba(255,255,255,0.28)" /></g>
  <rect width="1200" height="750" fill="url(#shade)" />
  <g font-family="'Hind Siliguri','Noto Sans Bengali',system-ui,sans-serif">
    <text x="72" y="694" fill="rgba(255,255,255,0.96)" font-size="56" font-weight="600">নতুন শিক্ষাবর্ষ</text>
    <text x="72" y="630" fill="rgba(255,255,255,0.62)" font-size="29" letter-spacing="2">OKGS · ওমর কিন্ডারগার্টেন স্কুল</text>
  </g>
</svg>
